<?xml version="1.0" standalone="no"?>
<!DOCTYPE svg PUBLIC "-//W3C//DTD SVG 20010904//EN"
 "http://www.w3.org/TR/2001/REC-SVG-20010904/DTD/svg10.dtd">
<svg version="1.0" xmlns="http://www.w3.org/2000/svg"
 width="380.000000pt" height="200.000000pt" viewBox="0 0 380.000000 200.000000"
 preserveAspectRatio="xMidYMid meet">
<metadata>
Created by potrace 1.16, written by Peter Selinger 2001-2019
</metadata>
<g transform="translate(0.000000,200.000000) scale(0.100000,-0.100000)"
fill="#000000" stroke="none">
<path d="M0 1000 l0 -1000 1900 0 1900 0 0 1000 0 1000 -1900 0 -1900 0 0
-1000z m2204 447 c72 -45 177 -105 233 -132 56 -28 102 -52 102 -55 1 -3 -33
-3 -76 -2 -69 3 -82 8 -142 45 -36 22 -111 74 -165 115 l-100 75 -100 -6 c-58
-4 -144 -17 -201 -32 -114 -30 -281 -108 -340 -160 l-40 -34 86 -1 c109 0 347
-20 374 -31 11 -4 -209 -8 -490 -8 l-510 0 105 28 c134 35 212 61 382 127 243
94 370 127 548 143 202 18 186 21 334 -72z m1008 -257 c20 -6 47 -23 59 -38
31 -40 24 -135 -18 -222 -17 -36 -38 -74 -46 -85 -15 -18 -15 -16 -2 29 8 27
15 62 15 79 0 40 -27 94 -60 117 -64 46 -98 48 -1030 64 -487 9 -934 17 -995
18 l-110 1 115 7 c63 4 484 13 935 19 451 7 843 13 870 15 133 6 233 5 267 -4z
m-2362 -166 c0 -4 12 -59 26 -123 34 -157 35 -146 -6 -146 -29 0 -36 4 -38 23
-3 20 -8 22 -72 22 -59 0 -71 -3 -80 -20 -7 -13 -21 -20 -40 -20 -17 0 -30 2
-30 5 0 3 39 64 87 135 82 123 88 130 120 130 18 0 33 -3 33 -6z m200 -1 c0
-5 -8 -45 -17 -91 -22 -107 -7 -135 63 -118 30 8 43 32 68 131 20 78 22 80 54
83 24 3 32 -1 32 -13 0 -32 -41 -177 -57 -202 -41 -62 -171 -85 -218 -38 -18
17 -25 35 -25 64 0 37 25 166 36 183 7 10 64 11 64 1z m488 -20 c-3 -26 -7
-28 -51 -31 -26 -2 -50 -9 -52 -15 -2 -7 -14 -56 -26 -109 l-21 -98 -34 0
c-40 0 -40 -2 -14 110 26 115 27 110 -26 110 -38 0 -45 3 -40 16 3 9 6 22 6
30 0 11 25 14 131 14 l130 0 -3 -27z m248 8 c67 -41 66 -136 -3 -203 -45 -44
-79 -58 -140 -58 -159 0 -169 197 -13 264 49 21 118 20 156 -3z m321 4 c23
-16 36 -52 22 -61 -5 -3 -23 9 -39 26 -27 29 -34 31 -68 25 -43 -8 -72 -30
-72 -57 0 -20 21 -31 87 -48 80 -20 94 -61 39 -116 -31 -31 -39 -34 -92 -34
-45 0 -63 5 -81 22 -26 24 -31 68 -8 68 8 0 15 -8 15 -19 0 -60 131 -66 158
-7 5 13 7 28 3 34 -9 14 -56 32 -87 32 -14 0 -36 11 -50 25 -31 31 -26 57 17
98 24 22 38 27 82 27 30 0 62 -6 74 -15z m143 8 c0 -5 -7 -33 -15 -63 -8 -30
-15 -56 -15 -57 0 -2 40 -3 89 -3 l90 0 12 54 c14 65 25 85 37 71 15 -16 -48
-275 -66 -275 -15 0 -14 13 3 95 l7 30 -89 -2 -88 -2 -13 -60 c-9 -40 -19 -61
-28 -61 -8 0 -14 4 -14 9 0 9 48 226 56 254 5 16 34 25 34 10z m506 -12 c116
-71 17 -261 -135 -261 -159 0 -170 182 -16 263 42 22 113 21 151 -2z m319 -5
c55 -36 15 -134 -63 -156 -20 -5 -56 -10 -79 -10 -40 0 -41 -1 -48 -40 -7 -40
-18 -56 -34 -46 -7 5 36 215 54 265 7 19 135 10 170 -13z"/>
<path d="M1648 954 c-28 -15 -58 -61 -58 -89 0 -25 38 -55 71 -55 22 0 41 10
65 34 39 39 44 76 14 106 -24 24 -54 25 -92 4z"/>
<path d="M2593 978 c-44 -31 -65 -74 -61 -123 2 -32 9 -44 38 -63 39 -26 81
-24 135 6 38 22 77 96 68 131 -11 49 -41 71 -97 71 -37 0 -60 -6 -83 -22z"/>
<path d="M2927 983 c-3 -10 -8 -31 -12 -48 -3 -16 -8 -38 -11 -47 -5 -16 2
-18 50 -18 44 0 60 5 85 26 60 50 30 104 -57 104 -40 0 -52 -4 -55 -17z"/>
</g>
</svg>
